<?xml version="1.0" encoding="utf-8"?>
<!-- Generator: Adobe Illustrator 26.4.1, SVG Export Plug-In . SVG Version: 6.00 Build 0)  -->
<svg version="1.1" id="Calque_1" xmlns="http://www.w3.org/2000/svg" xmlns:xlink="http://www.w3.org/1999/xlink" x="0px" y="0px"
	 viewBox="0 0 50 50" style="enable-background:new 0 0 50 50;" xml:space="preserve">
<style type="text/css">
	.st0{fill:#FFFFFF;}
</style>
<path class="st0" d="M14,4C8.5,4,4,8.5,4,14v22c0,5.5,4.5,10,10,10h22c5.5,0,10-4.5,10-10V14c0-5.5-4.5-10-10-10H14z M18,12
	c0.6,0,1.2,0.4,1.6,0.9c0.4,0.6,1,1.6,1.8,2.8c0.7,1.1,0.8,2.6,0.1,3.8L20,21.7c-0.4,0.6-0.5,1.3-0.2,1.9c0.4,1,1.2,2.5,2.6,3.9
	s2.9,2.2,3.9,2.6c0.6,0.3,1.4,0.2,1.9-0.2l2.1-1.5c1.2-0.7,2.7-0.6,3.8,0.1c1.3,0.8,2.2,1.4,2.8,1.8c0.5,0.3,0.9,0.9,0.9,1.6
	c0.2,3.6-2.6,5-3.4,5c-0.6,0-7.2,0.8-14.8-6.8S13,16,13,15.4C13,14.6,14.4,11.9,18,12z"/>
</svg>
