<?xml version="1.0" encoding="utf-8"?>
<!-- Generator: Adobe Illustrator 26.4.1, SVG Export Plug-In . SVG Version: 6.00 Build 0)  -->
<svg version="1.1" id="Calque_1" xmlns="http://www.w3.org/2000/svg" xmlns:xlink="http://www.w3.org/1999/xlink" x="0px" y="0px"
	 viewBox="0 0 50 50" style="enable-background:new 0 0 50 50;" xml:space="preserve">
<style type="text/css">
	.st0{fill:#FFFFFF;}
</style>
<path class="st0" d="M14,4C8.5,4,4,8.5,4,14v22c0,5.5,4.5,10,10,10h22c5.5,0,10-4.5,10-10V14c0-5.5-4.5-10-10-10H14z M13,16h24
	c0.2,0,0.3,0,0.5,0.1l-9.8,9.8c-1.5,1.5-3.9,1.5-5.4,0l-9.8-9.8C12.7,16,12.8,16,13,16z M11.1,17.5l7.5,7.5l-7.5,7.5
	c0-0.2-0.1-0.3-0.1-0.5V18C11,17.8,11,17.7,11.1,17.5z M38.9,17.5c0,0.2,0.1,0.3,0.1,0.5v14c0,0.2,0,0.3-0.1,0.5L31.4,25L38.9,17.5z
	 M20,26.4l0.9,0.9C22,28.4,23.5,29,25,29c1.5,0,3-0.6,4.1-1.7l0.9-0.9l7.5,7.5C37.3,34,37.2,34,37,34H13c-0.2,0-0.3,0-0.5-0.1
	L20,26.4z"/>
</svg>
